<svg xmlns="http://www.w3.org/2000/svg" viewBox="0 0 300 300" width="100%" height="100%">
  <defs>
    <linearGradient id="bgGrad_estp" x1="0" y1="0" x2="0" y2="1">
      <stop offset="0%" stop-color="#fefce8" />
      <stop offset="100%" stop-color="#ffffff" />
    </linearGradient>
    <filter id="softShadow_estp" x="-10%" y="-10%" width="120%" height="120%">
      <feDropShadow dx="0" dy="8" stdDeviation="6" flood-color="#e4ae3a" flood-opacity="0.15" />
    </filter>
  </defs>

  <!-- 圓形背景卡 -->
  <circle cx="150" cy="150" r="140" fill="url(#bgGrad_estp)" stroke="#e4ae3a" stroke-width="4" />

  <!-- 幾何背景光暈 -->
  <circle cx="150" cy="130" r="95" fill="#e4ae3a" opacity="0.08" />

  <!-- 角色身體與服裝 (16Personalities 經典 2D 扁平幾何) -->
  <g filter="url(#softShadow_estp)">
    <!-- 披肩/身體 -->
    <path d="M105 250 L100 165 Q150 140 200 165 L195 250 Z" fill="#ca8a04" stroke="#1e1b4b" stroke-width="3" stroke-linejoin="round" />
    
    <!-- 領口/內襯襯衫 -->
    <polygon points="135,148 165,148 150,185" fill="#ffffff" stroke="#1e1b4b" stroke-width="2" />

    <!-- 頭部臉型 (16P 經典幾何方圓下巴) -->
    <path d="M118 100 L118 135 Q150 160 182 135 L182 100 Z" fill="#fde68a" stroke="#1e1b4b" stroke-width="3" stroke-linejoin="round" />

    <!-- 髮型 -->
    <path d="M112 105 Q115 70 150 70 Q185 70 188 105 Q180 85 150 85 Q120 85 112 105 Z" fill="#713f12" stroke="#1e1b4b" stroke-width="3" stroke-linejoin="round" />

    <!-- 五官 (經典簡約極簡 16P 表情) -->
    <ellipse cx="138" cy="116" rx="3.5" ry="5" fill="#1e1b4b" />
    <ellipse cx="162" cy="116" rx="3.5" ry="5" fill="#1e1b4b" />
    <!-- 眉毛 -->
    <line x1="132" y1="107" x2="144" y2="108" stroke="#1e1b4b" stroke-width="2.5" stroke-linecap="round" />
    <line x1="156" y1="108" x2="168" y2="107" stroke="#1e1b4b" stroke-width="2.5" stroke-linecap="round" />
    <!-- 微笑 -->
    <path d="M142 134 Q150 142 158 134" fill="none" stroke="#1e1b4b" stroke-width="2.5" stroke-linecap="round" />
    <!-- 鼻子 -->
    <path d="M150 120 L152 127 L148 127" fill="none" stroke="#d97706" stroke-width="1.5" stroke-linecap="round" />

    <!-- 16 種獨立專屬道具與配件 -->
    
        <!-- ESTP: 墨鏡與破局金盃 -->
        <!-- 酷炫墨鏡 -->
        <polygon points="128,112 146,112 143,124 131,124" fill="#0f172a" />
        <polygon points="154,112 172,112 169,124 157,124" fill="#0f172a" />
        <line x1="146" y1="116" x2="154" y2="116" stroke="#0f172a" stroke-width="2"/>
        <!-- 獎盃 -->
        <path d="M215 160 L235 160 L230 185 Q225 195 225 205 L225 215 L220 215 L220 205 Q220 195 215 185 Z" fill="#eab308" stroke="#a16207" stroke-width="2" />
      
  </g>

  <!-- 底部徽章標籤 -->
  <rect x="75" y="246" width="150" height="30" rx="15" fill="#e4ae3a" />
  <text x="150" y="266" font-family="'Plus Jakarta Sans', sans-serif" font-weight="900" font-size="14" fill="#ffffff" text-anchor="middle" letter-spacing="1.5">ESTP</text>
</svg>