<svg xmlns="http://www.w3.org/2000/svg" viewBox="0 0 300 300" width="100%" height="100%">
  <defs>
    <filter id="facetShadow_infj" x="-20%" y="-20%" width="140%" height="140%">
      <feDropShadow dx="0" dy="6" stdDeviation="6" flood-color="#0f172a" flood-opacity="0.2" />
    </filter>
  </defs>

  <!-- 柔和純淨圓形背景 -->
  <circle cx="150" cy="150" r="142" fill="#f0fdf4" stroke="#33a474" stroke-width="3.5" />
  
  <!-- 幾何線條感光環 -->
  <polygon points="150,30 235,80 270,165 235,250 150,270 65,250 30,165 65,80" fill="none" stroke="#33a474" stroke-width="1" stroke-dasharray="4,4" opacity="0.35" />

  <!-- 幾何棱角折線人物 -->
  <g filter="url(#facetShadow_infj)">
    
      <!-- INFJ: 綠袍白鬚長老、手持木製法杖 -->
      <polygon points="100,145 150,135 150,260 85,260" fill="#047857" />
      <polygon points="150,135 200,145 215,260 150,260" fill="#065f46" />
      <!-- 臉部與長袍連帽折線 -->
      <polygon points="115,90 150,55 185,90 180,145 150,155 120,145" fill="#064e3b" />
      <polygon points="125,95 150,90 150,135 125,130" fill="#fde68a" />
      <polygon points="150,90 175,95 175,130 150,135" fill="#fcd34d" />
      <!-- 幾何白鬚 -->
      <polygon points="130,130 150,135 150,190 135,170" fill="#f8fafc" />
      <polygon points="150,135 170,130 165,170 150,190" fill="#e2e8f0" />
      <!-- 慈祥眼神 -->
      <polygon points="135,110 145,110 140,114" fill="#064e3b" />
      <polygon points="155,110 165,110 160,114" fill="#064e3b" />
      <!-- 木製魔杖與水晶寶珠 -->
      <line x1="65" y1="70" x2="65" y2="260" stroke="#78350f" stroke-width="5" stroke-linecap="round" />
      <polygon points="55,65 65,40 75,65 65,85" fill="#34d399" stroke="#059669" stroke-width="1.5" />
      <circle cx="65" cy="62" r="4" fill="#ffffff" />
    
  </g>

  <!-- 頂部棱角徽章 -->
  <g transform="translate(0, -2)">
    <polygon points="105,16 195,16 205,30 195,44 105,44 95,30" fill="#33a474" filter="drop-shadow(0 2px 4px rgba(0,0,0,0.25))" />
    <text x="150" y="34" font-family="'Plus Jakarta Sans', -apple-system, sans-serif" font-weight="900" font-size="13" fill="#ffffff" text-anchor="middle" letter-spacing="1.5">INFJ</text>
  </g>
</svg>