<svg xmlns="http://www.w3.org/2000/svg" viewBox="0 0 300 300" width="100%" height="100%">
  <defs>
    <filter id="facetShadow_intj" x="-20%" y="-20%" width="140%" height="140%">
      <feDropShadow dx="0" dy="6" stdDeviation="6" flood-color="#0f172a" flood-opacity="0.2" />
    </filter>
  </defs>

  <!-- 柔和純淨圓形背景 -->
  <circle cx="150" cy="150" r="142" fill="#f5f3ff" stroke="#88619a" stroke-width="3.5" />
  
  <!-- 幾何線條感光環 -->
  <polygon points="150,30 235,80 270,165 235,250 150,270 65,250 30,165 65,80" fill="none" stroke="#88619a" stroke-width="1" stroke-dasharray="4,4" opacity="0.35" />

  <!-- 幾何棱角折線人物 -->
  <g filter="url(#facetShadow_intj)">
    
      <!-- INTJ: 棱角分面鬍鬚軍師、沉思托腮、沙盤戰術台 -->
      <!-- 披肩外套分面 -->
      <polygon points="105,145 150,135 150,255 90,255" fill="#581c87" />
      <polygon points="150,135 195,145 210,255 150,255" fill="#4c1d95" />
      <polygon points="125,140 150,135 150,195 125,190" fill="#7e22ce" />
      <polygon points="150,135 175,140 175,190 150,195" fill="#6b21a8" />
      <!-- 棱角分面頭部 -->
      <polygon points="120,95 150,85 150,140 115,130" fill="#fde68a" />
      <polygon points="150,85 180,95 185,130 150,140" fill="#fcd34d" />
      <polygon points="135,135 150,140 150,150 135,145" fill="#f59e0b" />
      <polygon points="150,140 165,135 165,145 150,150" fill="#d97706" />
      <!-- 棱角幾何紫色短髮與鬢角 -->
      <polygon points="110,95 125,60 150,55 150,85 120,95" fill="#3b0764" />
      <polygon points="150,55 175,60 190,95 180,95 150,85" fill="#2e1065" />
      <polygon points="125,60 150,55 140,75" fill="#581c87" />
      <polygon points="150,55 175,60 160,75" fill="#3b0764" />
      <!-- 沉思八字鬍鬚 -->
      <polygon points="130,126 150,128 145,135 130,132" fill="#3b0764" />
      <polygon points="150,128 170,126 170,132 155,135" fill="#2e1065" />
      <!-- 棱角眼睛 -->
      <polygon points="130,108 142,108 138,114 130,112" fill="#1e1b4b" />
      <polygon points="158,108 170,108 170,112 162,114" fill="#1e1b4b" />
      <!-- 戰術沙盤台與旗幟 -->
      <polygon points="70,225 130,210 140,260 80,260" fill="#cbd5e1" />
      <polygon points="130,210 150,215 140,260" fill="#94a3b8" />
      <line x1="95" y1="220" x2="95" y2="200" stroke="#475569" stroke-width="2" />
      <polygon points="95,200 108,206 95,212" fill="#7e22ce" />
      <line x1="120" y1="215" x2="120" y2="195" stroke="#475569" stroke-width="2" />
      <polygon points="120,195 133,201 120,207" fill="#a855f7" />
    
  </g>

  <!-- 頂部棱角徽章 -->
  <g transform="translate(0, -2)">
    <polygon points="105,16 195,16 205,30 195,44 105,44 95,30" fill="#88619a" filter="drop-shadow(0 2px 4px rgba(0,0,0,0.25))" />
    <text x="150" y="34" font-family="'Plus Jakarta Sans', -apple-system, sans-serif" font-weight="900" font-size="13" fill="#ffffff" text-anchor="middle" letter-spacing="1.5">INTJ</text>
  </g>
</svg>